<svg width="150" height="75" viewBox="0 0 253 70" xmlns="http://www.w3.org/2000/svg">
    <g data-name="Group 1">
        <path data-name="Path 1" d="M.012 35.038c0-5.31.016-10.62-.012-15.93a2.669 2.669 0 0 1 1.463-2.6Q15.486 8.461 29.471.349a2.265 2.265 0 0 1 2.448.02c4.008 2.283 8.028 4.544 12.032 6.834a1.189 1.189 0 0 0 1.11.106 3.605 3.605 0 0 1 4.448 1.681 3.726 3.726 0 0 1-5.6 4.722 3.583 3.583 0 0 1-1.316-2.246.875.875 0 0 0-.5-.7q-5.506-3.1-10.987-6.246a.842.842 0 0 0-.969.09q-8.008 4.627-16.02 9.249c-3.207 1.852-6.406 3.718-9.623 5.553a.819.819 0 0 0-.467.838q.014 14.8 0 29.593a.829.829 0 0 0 .482.833q12.858 7.4 25.7 14.84a.831.831 0 0 0 .962-.017q12.785-7.4 25.586-14.765a.98.98 0 0 0 .569-.99 427.86 427.86 0 0 1 0-7.6 1.036 1.036 0 0 0-.418-.9 3.7 3.7 0 0 1-.31-5.4 3.738 3.738 0 0 1 5.368-.059 3.681 3.681 0 0 1-.2 5.4 1.2 1.2 0 0 0-.445 1.022c.014 3-.008 6 .015 9a2.38 2.38 0 0 1-1.31 2.276q-14.1 8.114-28.18 16.264a2.189 2.189 0 0 1-2.382-.017q-12.093-7-24.193-13.984c-1.287-.743-2.556-1.519-3.868-2.216a2.472 2.472 0 0 1-1.392-2.435c.012-5.35.001-10.705.001-16.057z" fill="#000"/>
        <path data-name="Path 2" d="M51.227 35.048c0 3.11-.025 6.221.014 9.332a2.388 2.388 0 0 1-1.327 2.323q-8.141 4.663-16.249 9.383a2.287 2.287 0 0 1-2.5.031c-1.437-.838-2.89-1.647-4.33-2.479a1.1 1.1 0 0 0-.992-.117 3.706 3.706 0 0 1-4.8-4.711 3.591 3.591 0 0 1 3.237-2.484 3.707 3.707 0 0 1 3.852 2.844 1.423 1.423 0 0 0 .759 1.063c1.02.563 2.031 1.143 3.046 1.714a.651.651 0 0 0 .762-.014c3.371-1.965 6.77-3.884 10.155-5.826 1.345-.772 2.669-1.584 4.02-2.346a.611.611 0 0 0 .343-.633q-.007-8.065.009-16.13a.773.773 0 0 0-.485-.755q-6.975-4.028-13.942-8.072a.791.791 0 0 0-.9 0q-6.851 3.989-13.719 7.951a1.03 1.03 0 0 0-.615 1.034 2.378 2.378 0 0 0 .733 1.917 3.613 3.613 0 0 1-.186 5.188 3.7 3.7 0 0 1-5.21-.121 3.619 3.619 0 0 1 .033-5.2 1.769 1.769 0 0 0 .615-1.557c-.036-.62-.005-1.244-.007-1.866a2.218 2.218 0 0 1 1.212-2.065q8.218-4.728 16.424-9.48a2.282 2.282 0 0 1 2.5.036q8.056 4.676 16.14 9.3a2.528 2.528 0 0 1 1.433 2.472c-.061 3.09-.025 6.18-.025 9.268z" fill="#000"/>
        <path data-name="Path 3" d="M21.512 35.032c0-1.311-.015-2.622.005-3.932a2.137 2.137 0 0 1 1.209-2.081c1.429-.737 2.787-1.61 4.191-2.4.289-.162.3-.385.356-.641a3.7 3.7 0 0 1 6.152-1.955 3.707 3.707 0 0 1-3.678 6.248 1.3 1.3 0 0 0-1.293.105c-.813.519-1.662.985-2.517 1.432a.658.658 0 0 0-.387.684c0 1.666 0 3.332-.034 5a.794.794 0 0 0 .457.793c1.426.816 2.849 1.639 4.258 2.484.624.374.964-.211 1.389-.4.723-.317 1.371-.8 2.068-1.187a.769.769 0 0 0 .4-.74 3.631 3.631 0 0 1 3.968-3.514 3.733 3.733 0 1 1-1.083 7.368 1.239 1.239 0 0 0-.935.186c-1.361.8-2.721 1.607-4.092 2.392a2.426 2.426 0 0 1-2.658.025c-2.107-1.271-4.244-2.495-6.376-3.723a2.5 2.5 0 0 1-1.42-2.482c.07-1.215.019-2.44.02-3.662z" fill="#000"/>
    </g>
    <g data-name="Group 2" fill="#000">
        <path data-name="Path 4" d="M115.318 29.087h3.038c.508 0 .246-.281.175-.471a5.146 5.146 0 0 1 .1-4.086 5.228 5.228 0 1 1 2.393 6.8 2.735 2.735 0 0 0-1.333-.318c-1.891.014-3.781.01-5.672 0a1.88 1.88 0 0 0-.928.231 5.1 5.1 0 0 1-5.066.006 1.965 1.965 0 0 0-.987-.237c-1.909.024-3.819.02-5.727.06-.48.01-.618-.121-.611-.609.028-2.094 0-4.188.025-6.281.007-.472-.13-.563-.573-.557-1.972.025-3.944 0-5.915.013a2.948 2.948 0 0 0-2.907 2.454c-.074.423-.043.642.51.63 1.91-.039 3.822.008 5.732-.03.53-.01.633.149.608.637a41.774 41.774 0 0 0-.024 2.742 4.952 4.952 0 0 1-4.285 4.8 53.34 53.34 0 0 1-8.279.005 4.951 4.951 0 0 1-4.308-4.576c0-1.28-.025-2.56-.054-3.841-.007-.312.1-.416.416-.433 1.765-.1 1.759-.106 1.768 1.625a18.91 18.91 0 0 0 .09 2.678 3.058 3.058 0 0 0 2.6 2.608 22.825 22.825 0 0 0 2.314.059c1.379.008 2.759-.019 4.138.007 2.255.042 3.663-1.612 3.437-4.1-.036-.4-.319-.238-.5-.239-1.931-.011-3.863-.026-5.794.006-.489.008-.619-.132-.586-.6a22.105 22.105 0 0 1 .108-2.371 5.133 5.133 0 0 1 4.922-4.2c2.683-.021 5.366-.008 8.048-.044.528-.007.7.121.692.671-.045 2.132-.033 4.266-.066 6.4-.006.409.085.583.531.56a21.096 21.096 0 0 1 2.012 0c.429.017.5-.066.338-.494a5.181 5.181 0 0 1 3.811-7.03 4.965 4.965 0 0 1 4.951 1.655 5.077 5.077 0 0 1 1.054 5.12 1.6 1.6 0 0 0-.196.75zm8.052.721a3.129 3.129 0 0 0 3.166-3.1 3.14 3.14 0 1 0-3.166 3.1zm-9.7-3.071a3.124 3.124 0 1 0-3.175 3.07 3.121 3.121 0 0 0 3.183-3.071z"/>
        <path data-name="Path 5" d="M159.05 31.106c-1.059 0-2.008.022-2.956 0a5.254 5.254 0 1 1 5.5-5.233c.013.935.016 1.871 0 2.806-.007.344.038.5.449.49 1.056-.033 2.113-.011 3.233-.011a5.559 5.559 0 0 1-.342-3.878 5.14 5.14 0 0 1 2.327-3.091 5.3 5.3 0 0 1 6.047.367 5.479 5.479 0 0 1 1.5 6.582c.948 0 1.866.006 2.784 0 .34 0 .221-.287.222-.46.009-1.5.016-3.009 0-4.513 0-.375.062-.558.488-.514a5.643 5.643 0 0 0 1.157 0c.407-.042.459.135.455.485-.018 1.5 0 3.009-.014 4.513 0 .358.033.53.475.527 1.472-.01 1.472.011 1.472-1.481 0-1.179.015-2.359-.009-3.538-.008-.4.065-.606.521-.554.5.057 1.155-.206 1.473.1s.089.961.1 1.463q.023 1.8 0 3.6c0 .318.083.423.406.407.667-.034 1.54.22 1.946-.112.422-.345.109-1.253.124-1.914a70.482 70.482 0 0 0 0-3.05c-.008-.355.113-.437.452-.445 1.647-.04 1.647-.05 1.647 1.616 0 1.139.01 2.277-.007 3.416-.005.34.035.5.449.495 1.382-.03 2.765-.025 4.147 0 .384.007.471-.11.469-.48-.016-2.48 0-4.961-.019-7.441 0-.47.105-.622.6-.613 1.507.027 1.508 0 1.508 1.511 0 2.806-.012 5.612.012 8.417 0 .46-.113.562-.565.561q-10.8-.024-21.593-.015a2.2 2.2 0 0 0-.986.227 5.94 5.94 0 0 1-4.959-.014 2.552 2.552 0 0 0-.989-.212c-1.545.007-3.09.009-4.635 0a.59.59 0 0 0-.668.414 5.011 5.011 0 0 1-4.561 3.223c-1.825.093-3.659.02-5.489.034-.28 0-.375-.065-.39-.366-.08-1.607-.09-1.606 1.529-1.607 1.22 0 2.44-.021 3.66.006a3.4 3.4 0 0 0 3.03-1.718zm.349-3.964h-.051a10.5 10.5 0 0 0-.018-1.881 3.036 3.036 0 0 0-3.561-2.454 3.175 3.175 0 0 0-2.592 3.385 3.143 3.143 0 0 0 3.024 2.937c.933.033 1.868-.007 2.8.015.332.008.415-.109.4-.418-.012-.528-.002-1.057-.002-1.584zm10.61 2.744a3.122 3.122 0 0 0 3.166-3.153 3.181 3.181 0 0 0-3.1-3.189 3.144 3.144 0 0 0-3.146 3.185 3.064 3.064 0 0 0 3.081 3.157z"/>
        <path data-name="Path 6" d="M118.757 46.96l-2.052 5.757c-.326.914-.675 1.821-.973 2.744a.859.859 0 0 1-.891.655c-.244.007-.488 0-.732 0a.946.946 0 0 1-1.019-.742c-.881-2.648-1.808-5.282-2.719-7.92a.882.882 0 0 0-.261-.429v.859c0 2.48-.02 4.96.015 7.439.008.579-.231.763-.729.792h-.122c-1.347.056-1.4.007-1.4-1.323v-8.9c0-.962.232-1.191 1.185-1.2.467 0 .935 0 1.4.007a1.589 1.589 0 0 1 1.6 1.23c.727 2.081 1.484 4.152 2.238 6.224.044.122.04.285.257.391.466-1.223.933-2.434 1.391-3.649.386-1.022.759-2.049 1.143-3.072a1.419 1.419 0 0 1 1.591-1.13c.488-.01.977-.018 1.463 0 .661.03.938.3.94.945.008 3.293 0 6.586.011 9.878 0 .331-.12.508-.43.536a9.155 9.155 0 0 1-1.153.05c-.445-.015-.664-.209-.659-.726.026-2.8.013-5.605.013-8.408z"/>
        <path data-name="Path 7" d="M211.349 34.876a35.029 35.029 0 0 1-3.715-.084 5.145 5.145 0 0 1-4.247-4.47c-.042-1.342-.014-2.682-.049-4.022-.007-.273.109-.366.36-.346a.453.453 0 0 0 .061 0c1.765-.094 1.756-.094 1.769 1.66a16.254 16.254 0 0 0 .088 2.616 3.1 3.1 0 0 0 3.009 2.673c2.132.036 4.266.041 6.4 0a3.134 3.134 0 0 0 3.055-3.043c.076-1.3.076-1.3-1.208-1.3-1.707 0-3.415 0-5.121.024-.376 0-.545-.063-.513-.49a21.073 21.073 0 0 1 .11-2.552 5.234 5.234 0 0 1 8.418-2.986c.323.27.406.468.033.734a1.941 1.941 0 0 0-.217.213c-.274.272-.5.653-.833.788-.373.152-.609-.333-.935-.493a3.082 3.082 0 0 0-4.378 2.272c-.056.415.013.565.475.557 1.951-.031 3.9-.009 5.852-.04.431-.007.549.108.534.536-.036 1.035.051 2.078-.039 3.108a5.077 5.077 0 0 1-4.945 4.639c-1.16.044-2.32.006-3.964.006z"/>
        <path data-name="Path 8" d="M248.532 31.228c-1.014 0-1.92.018-2.824 0a5.308 5.308 0 0 1-5.161-4.615 5.274 5.274 0 1 1 10.509-.778 72.204 72.204 0 0 1-.037 4.63 5.054 5.054 0 0 1-4.118 4.312 24.755 24.755 0 0 1-3.709.112c-.832.018-1.666-.009-2.5.01-.31.007-.406-.074-.414-.4-.038-1.582-.05-1.581 1.544-1.583 1.32 0 2.641 0 3.96-.014a3.26 3.26 0 0 0 2.75-1.674zm.341-3.891a16.016 16.016 0 0 0-.009-1.642 3.044 3.044 0 0 0-3.1-2.823 3.184 3.184 0 0 0-.518 6.315 9.785 9.785 0 0 0 1.762.059c.605 0 1.411.2 1.765-.1.411-.359.068-1.188.099-1.809z"/>
        <path data-name="Path 9" d="M138.69 22.568c0 2.642-.012 5.284.011 7.925 0 .458-.113.581-.573.572-1.583-.03-3.166 0-4.749-.022a.574.574 0 0 0-.677.464 5.116 5.116 0 0 1-4.911 3.415c-.344-.008-.493-.1-.444-.451a2.262 2.262 0 0 0 0-.3c0-1.048 0-1.048.995-1.243a3.023 3.023 0 0 0 2.285-2.267 8.926 8.926 0 0 0 .188-1.812c0-2.3.006-4.592-.009-6.889 0-.38.071-.552.495-.513.521.048 1.207-.16 1.529.1.341.277.1.988.105 1.509.014 1.829.026 3.658-.008 5.486-.01.512.172.6.623.588.832-.031 1.668-.04 2.5 0 .5.025.607-.144.6-.613-.017-3.881-.01-7.762-.01-11.644 0-.813.012-1.626-.006-2.438-.007-.311.079-.408.405-.419 1.646-.054 1.646-.065 1.646 1.541z"/>
        <path data-name="Path 10" d="M139.219 50.375v-4.691c0-.8.174-.99.951-.986 1.3.006 2.6-.05 3.9.07a4.72 4.72 0 0 1 4.5 4.2 8.535 8.535 0 0 1-.063 3.028 4.734 4.734 0 0 1-4.512 3.99c-1.317.131-2.638.067-3.957.08-.593.006-.826-.306-.821-.881.01-1.601.002-3.205.002-4.81zm2.369-.022v2.315c0 1.532 0 1.532 1.555 1.5A2.813 2.813 0 0 0 146 51.984a5.657 5.657 0 0 0 .01-3.24 2.832 2.832 0 0 0-2.65-2.14c-.445-.031-.894 0-1.339-.035-.345-.026-.448.089-.441.436.021 1.115.007 2.231.007 3.348z"/>
        <path data-name="Path 11" d="M164.32 52.49c0 .807-.012 1.614.006 2.421a.657.657 0 0 1-.441.711 8.355 8.355 0 0 1-6.008.179 4.851 4.851 0 0 1-3.158-4.4 6 6 0 0 1 2.072-5.734 7.135 7.135 0 0 1 6.952-.494 1.73 1.73 0 0 1 .521 2.1c-.206.31-.423.117-.627.006a6.53 6.53 0 0 0-2.83-.814 3.436 3.436 0 0 0-3.69 3.261 5.134 5.134 0 0 0 .175 2.171 3.323 3.323 0 0 0 4.237 2.251c.332-.1.5-.255.477-.643a14.782 14.782 0 0 1 0-1.706c.017-.356-.114-.454-.451-.435-.466.025-.936-.018-1.4.014a.493.493 0 0 1-.6-.512 4.28 4.28 0 0 1 0-.789.517.517 0 0 1 .609-.518c1.117.019 2.235 0 3.353.009.621 0 .834.214.85.85.018.691 0 1.382 0 2.073z"/>
        <path data-name="Path 12" d="M219.167 56.118c-1.148 0-1.148 0-1.52-1.1-.517-1.534-.517-1.534-2.114-1.534-.732 0-1.464.009-2.2 0a.44.44 0 0 0-.514.379c-.16.585-.4 1.149-.562 1.732a.657.657 0 0 1-.6.511 1.154 1.154 0 0 1-.182.016c-1.558-.013-1.853.211-1.222-1.562a709.364 709.364 0 0 0 3.178-9.171.969.969 0 0 1 1.024-.741c2.1-.044 2.1-.05 2.789 1.926q1.444 4.124 2.9 8.245c.433 1.223.378 1.299-.977 1.299zm-4.14-9.114c-.521 1.554-.981 2.936-1.448 4.317-.1.281.017.352.28.344.426-.012.853 0 1.28 0 1.437 0 1.439 0 .988-1.361-.345-1.049-.696-2.093-1.099-3.302z"/>
        <path data-name="Path 13" d="M92.809 44.651c1.431 0 1.431 0 1.889 1.313l3.05 8.766c.086.249.149.505.236.754.137.393-.038.575-.41.631a1.714 1.714 0 0 1-.183.006c-1.709.074-1.709.074-2.267-1.586-.352-1.049-.352-1.049-1.421-1.049-.894 0-1.789.012-2.683-.006a.477.477 0 0 0-.565.4c-.145.548-.346 1.081-.5 1.627a.757.757 0 0 1-.794.611c-1.819.021-1.823.074-1.246-1.587q1.534-4.412 3.065-8.826c.365-1.05.369-1.053 1.522-1.054zm-.135 2.348c-.524 1.563-.983 2.94-1.45 4.315-.095.279 0 .358.275.354a71.461 71.461 0 0 1 2.315 0c.3.006.4-.076.3-.379-.466-1.371-.922-2.744-1.44-4.293z"/>
        <path data-name="Path 14" d="M182.956 53.483h-.854c-1.232 0-1.232 0-1.6 1.148-.018.058-.035.117-.055.174-.437 1.232-.086 1.336-1.791 1.313-.812-.011-.933-.165-.669-.954.5-1.5 1.024-2.986 1.54-4.478.617-1.778 1.251-3.549 1.847-5.334a.909.909 0 0 1 .986-.7h.122c2.484.008 1.945-.178 2.68 1.892.968 2.726 1.915 5.459 2.869 8.19.094.268.185.537.261.81.091.325-.068.5-.378.565a1.543 1.543 0 0 1-.243.013c-1.708.073-1.708.073-2.266-1.586-.353-1.049-.353-1.049-1.418-1.049zm.008-6.492c-.529 1.578-1 2.971-1.464 4.364-.115.342.126.307.33.307.75 0 1.5-.01 2.251 0 .325.006.434-.072.317-.412-.468-1.353-.913-2.717-1.435-4.259z"/>
        <path data-name="Path 15" d="M132.803 48.958a33.56 33.56 0 0 1-.074 3.613 3.92 3.92 0 0 1-3.8 3.648 6.9 6.9 0 0 1-2.6-.173 3.526 3.526 0 0 1-2.769-3.315c-.092-2.517-.042-5.039-.059-7.559a.409.409 0 0 1 .383-.455c.079-.016.157-.042.237-.054 1.468-.219 1.731.006 1.731 1.473 0 1.911-.01 3.821 0 5.732a2.12 2.12 0 0 0 1.441 2.3c1.758.484 3.093-.278 3.157-2.244.034-1.056.008-2.114.008-3.171 0-1.159.013-2.317-.007-3.476-.006-.356.13-.529.464-.581.08-.012.16-.032.24-.04 1.469-.151 1.648.008 1.648 1.458z"/>
        <path data-name="Path 16" d="M205.576 53.492l2.239-7.167.109-.345c.448-1.406.577-1.489 2.063-1.333.433.045.612.219.453.688-.977 2.891-1.937 5.787-2.9 8.681-.167.5-.362.991-.5 1.5a.752.752 0 0 1-.746.587 2.791 2.791 0 0 1-.3.013c-2.488-.013-1.942.218-2.67-1.9-.973-2.824-1.909-5.66-2.853-8.493-.323-.97-.236-1.074.794-1.08 1.613-.009 1.373-.022 1.81 1.354q1.19 3.747 2.369 7.5z"/>
        <path data-name="Path 17" d="M236.872 50.351v-4.634c0-.82.2-1.018 1-1.021 1.667 0 3.334.019 5-.013.549-.01.731.218.718.712 0 .162-.008.325 0 .487.027.517-.194.719-.727.7-1.035-.033-2.074.012-3.109-.02-.441-.014-.553.137-.529.551.034.567.025 1.139 0 1.707-.014.341.094.461.446.453.894-.022 1.789.008 2.683-.014.453-.011.631.187.621.614q-.007.3 0 .609c.01.431-.178.621-.627.611-.894-.021-1.789.008-2.683-.013-.353-.009-.451.11-.44.452q.034 1.127 0 2.256c-.01.33.114.411.422.407a119.71 119.71 0 0 1 3.171 0c.732.007.84.145.829.974-.01.8-.094.9-.841.9q-2.5.011-5 0c-.725 0-.932-.219-.935-.961-.003-1.586.001-3.172.001-4.757z"/>
        <path data-name="Path 18" d="M102.047 56.256a5.451 5.451 0 0 1-2.7-.6 1.79 1.79 0 0 1-.5-2.049c.226-.338.472-.119.683.009a4.32 4.32 0 0 0 2.9.7 1.7 1.7 0 0 0 .736-.268 1.234 1.234 0 0 0 .175-1.945 3.475 3.475 0 0 0-.975-.611c-.531-.251-1.077-.473-1.587-.76a3.24 3.24 0 0 1 1.131-6.161 5.356 5.356 0 0 1 2.87.325 1.676 1.676 0 0 1 .662 2.067c-.19.285-.436.115-.643 0a3.946 3.946 0 0 0-2.26-.6 1.166 1.166 0 0 0-.947 1.915 2.661 2.661 0 0 0 1.083.694c.6.294 1.219.554 1.805.874a3.021 3.021 0 0 1 1.7 2.938 3.275 3.275 0 0 1-1.948 3 4.767 4.767 0 0 1-2.185.472z"/>
        <path data-name="Path 19" d="M227.964 31.056c-1.4 0-2.8-.01-4.205.006-.379 0-.534-.086-.537-.507-.011-1.439-.028-1.438 1.406-1.438 1.808 0 3.616-.009 5.424.008.353 0 .505-.055.485-.457-.036-.73.011-1.463-.015-2.193a2.886 2.886 0 0 0-1.659-2.645 2.845 2.845 0 0 0-3.158.259c-.4.306-.6.231-.865-.1a7.093 7.093 0 0 0-.514-.52c-.6-.6-.615-.62.114-1.122a5.03 5.03 0 0 1 5.309-.436 4.931 4.931 0 0 1 2.936 4.558c.041 1.359-.006 2.721.018 4.081.008.419-.152.513-.534.508-1.397-.013-2.803-.002-4.205-.002z"/>
        <path data-name="Path 20" d="M249.162 49.431c.5-1.371 1.152-2.671 1.7-4.013a1.077 1.077 0 0 1 1.135-.777c1.816 0 1.816-.013 1 1.612-.844 1.684-1.684 3.37-2.536 5.049a1.936 1.936 0 0 0-.221.931c.013 1.057-.016 2.115.015 3.171a.592.592 0 0 1-.575.7 2.425 2.425 0 0 1-.3.019c-1.506.046-1.622.016-1.506-1.46a9.054 9.054 0 0 0-1.338-5.612c-.7-1.157-1.247-2.413-1.84-3.635-.266-.548-.142-.72.472-.761h.061c2.093-.006 1.66-.107 2.4 1.469.5 1.079.97 2.175 1.455 3.262.003.009.029.016.078.045z"/>
        <path data-name="Path 21" d="M83.145 51.239c0-1.381-.014-2.763.01-4.144.006-.377-.1-.488-.471-.47-.669.031-1.342-.021-2.01.019-.46.027-.626-.181-.654-.586a4.936 4.936 0 0 1-.017-.547c.031-.75.1-.816.866-.817 2.336 0 4.673.023 7.009-.015.633-.01.844.235.828.8-.006.2-.021.4-.025.607-.007.4-.184.572-.607.552-.628-.031-1.262.025-1.888-.018-.494-.034-.654.1-.648.621.028 2.661.013 5.323.013 7.984 0 .759-.108.867-.877.89-1.5.044-1.529.018-1.529-1.466z"/>
        <path data-name="Path 22" d="M173.449 51.236c0-1.361-.018-2.723.011-4.084.009-.44-.134-.548-.549-.527-.648.034-1.3-.02-1.949.019-.458.028-.628-.175-.653-.583a5.291 5.291 0 0 1-.019-.547c.033-.756.1-.82.863-.821 2.337 0 4.673.023 7.009-.015.63-.01.846.233.835.8 0 .182-.014.365-.016.547-.005.449-.193.652-.677.618-.586-.041-1.18.024-1.766-.02-.532-.04-.719.1-.711.679.035 2.661 0 5.323.029 7.984.007.6-.238.807-.768.831h-.061c-1.512.076-1.576.016-1.576-1.471z"/>
        <path data-name="Path 23" d="M189.689 50.236c0-1.606.023-3.213-.013-4.818-.012-.55.242-.72.706-.769 1.516-.161 1.713.014 1.713 1.527 0 2.46.014 4.92-.013 7.38-.005.467.123.581.572.561.872-.037 1.749.012 2.621-.02.44-.016.646.151.677.57a4.138 4.138 0 0 1 .022.545c-.044.8-.111.86-.9.86h-4.391c-.817 0-1-.185-1-1.016.006-1.608.006-3.214.006-4.82z"/>
        <path data-name="Path 24" d="M221.743 50.237c0-1.606.024-3.213-.013-4.818-.012-.554.252-.717.71-.768h.122c1.51-.084 1.581-.017 1.581 1.466 0 2.44.022 4.88-.016 7.319-.009.585.179.711.713.684.811-.042 1.626 0 2.439-.014.479-.008.774.148.744.682-.008.141.017.284.009.426-.039.8-.1.857-.885.859q-2.226.008-4.452 0c-.727 0-.946-.222-.949-.951-.009-1.632-.003-3.258-.003-4.885z"/>
        <path data-name="Path 25" d="M229.307 50.243c0-1.606.023-3.213-.013-4.818-.012-.549.239-.724.7-.772.06-.006.122 0 .183-.005 1.5-.054 1.524-.027 1.524 1.461 0 2.46.016 4.92-.013 7.38-.006.521.147.654.646.628.791-.042 1.585-.015 2.378-.01.809 0 .847.045.881.855v.183c-.024.862-.084.924-.945.926-1.464 0-2.928.006-4.392 0-.731 0-.948-.218-.952-.946-.002-1.628.003-3.256.003-4.882z"/>
        <path data-name="Path 26" d="M141.702 22.543c0-2.661.009-5.322-.009-7.983 0-.406.069-.552.517-.547 1.553.016 1.553 0 1.553 1.523 0 4.936-.008 9.872.011 14.808 0 .534-.1.746-.691.727-1.38-.044-1.38-.011-1.38-1.4z"/>
        <path data-name="Path 27" d="M238.13 22.743c0 2.661-.007 5.321.007 7.982 0 .37-.053.567-.484.516-.5-.059-1.158.208-1.468-.1s-.089-.962-.09-1.463c-.007-4.915 0-9.83-.014-14.746 0-.517.073-.74.674-.718 1.373.05 1.375.014 1.375 1.4z"/>
        <path data-name="Path 28" d="M166.642 50.322c0-1.646.017-3.292-.011-4.937a.618.618 0 0 1 .613-.725c.06-.009.121-.008.182-.012 1.528-.092 1.613-.013 1.613 1.5 0 3.047-.016 6.1.014 9.142.006.6-.25.8-.772.83h-.061c-1.5.084-1.578.014-1.578-1.47z"/>
        <path data-name="Path 29" d="M150.491 50.321c0-1.665.016-3.33-.011-4.995-.007-.422.159-.592.533-.643.1-.014.2-.028.3-.033 1.471-.074 1.53-.019 1.53 1.44 0 3.066-.018 6.132.016 9.2.006.6-.234.788-.756.831-1.478.122-1.613 0-1.613-1.472z"/>
        <path data-name="Path 30" d="M214.92 37.456a1.387 1.387 0 0 1-1.454 1.389 1.372 1.372 0 1 1 1.454-1.389z"/>
        <path data-name="Path 31" d="M191.096 19.395a1.372 1.372 0 1 1 1.45-1.339 1.4 1.4 0 0 1-1.45 1.339z"/>
        <path data-name="Path 32" d="M210.171 38.846a1.371 1.371 0 1 1 1.447-1.343 1.4 1.4 0 0 1-1.447 1.343z"/>
        <path data-name="Path 33" d="M194.387 19.394a1.373 1.373 0 1 1 .036-2.74 1.373 1.373 0 1 1-.036 2.74z"/>
        <path data-name="Path 34" d="M88.044 36.224a1.349 1.349 0 0 1 1.452 1.37 1.33 1.33 0 0 1-1.426 1.327 1.353 1.353 0 1 1-.026-2.7z"/>
        <path data-name="Path 35" d="M91.31 38.928a1.356 1.356 0 1 1 1.5-1.324 1.359 1.359 0 0 1-1.5 1.324z"/>
        <path data-name="Path 36" d="M123.616 18.027a1.343 1.343 0 0 1 1.39-1.372 1.387 1.387 0 0 1 1.453 1.326 1.409 1.409 0 0 1-1.406 1.383 1.381 1.381 0 0 1-1.437-1.337z"/>
        <path data-name="Path 37" d="M123.167 17.988a1.351 1.351 0 0 1-1.384 1.375 1.385 1.385 0 0 1-1.428-1.347 1.305 1.305 0 0 1 1.459-1.326 1.257 1.257 0 0 1 1.353 1.298z"/>
    </g>
</svg>