<svg height="75" width="150" viewBox="0 0 326 301" xmlns="http://www.w3.org/2000/svg" xmlns:xlink="http://www.w3.org/1999/xlink">
   <filter id="Adobe_OpacityMaskFilter" filterUnits="userSpaceOnUse" height="113.3" width="123.3" x="0" y="-.1">
      <feColorMatrix id="feColorMatrix5" type="matrix" values="1 0 0 0 0  0 1 0 0 0  0 0 1 0 0  0 0 0 1 0"/>
   </filter>
   <mask id="mask-2_2_" height="113.3" maskUnits="userSpaceOnUse" width="123.3" x="0" y="-.1">
      <g id="g11" filter="url(#Adobe_OpacityMaskFilter)">
         <polygon id="path-1_2_" clip-rule="evenodd" fill="#fff" fill-rule="evenodd" points="123.3 113.3 0 113.3 0 -.1 123.3 -.1"/>
      </g>
   </mask>
   <filter id="Adobe_OpacityMaskFilter_1_" filterUnits="userSpaceOnUse" height="96.400002" width="104.9" x="9.8999996" y="8.3999996">
      <feColorMatrix id="feColorMatrix28" type="matrix" values="1 0 0 0 0  0 1 0 0 0  0 0 1 0 0  0 0 0 1 0"/>
   </filter>
   <mask id="mask-2_1_" height="96.4" maskUnits="userSpaceOnUse" width="104.9" x="9.9" y="8.4">
      <g id="g34" filter="url(#Adobe_OpacityMaskFilter_1_)">
         <polygon id="path-1_1_" clip-rule="evenodd" fill="#fff" fill-rule="evenodd" points="114.7 104.8 9.9 104.8 9.9 8.4 114.7 8.4"/>
      </g>
   </mask>
   <path id="Fill-1_1_" clip-rule="evenodd" d="m61.6-.1c-45.5 0-61.6 24.6-61.6 59 0 34.4 16.1 54.4 61.6 54.4 45.5 0 61.6-19.9 61.6-54.4.1-34.4-16.1-59-61.6-59" fill="#fff" fill-rule="evenodd" mask="url(#mask-2_2_)" transform="matrix(2.6217435 0 0 2.6217435 2 2.26217432)"/>
   <g id="g108" clip-rule="evenodd" fill-rule="evenodd" transform="matrix(2.6217435 0 0 2.6217435 2 2.1001899)">
      <path id="Fill-1" d="m62.3 8.4c-38.7 0-52.4 20.9-52.4 50.2 0 29.3 13.7 46.3 52.4 46.3 38.7 0 52.4-17 52.4-46.3 0-29.3-13.7-50.2-52.4-50.2" fill="#98252b" mask="url(#mask-2_1_)" transform="translate(0 .061785)"/>
      <path id="Fill-4" d="m36.2 80.3h-1.4v1.3h1.4c.6 0 1 .2 1.2.4.1-.2.2-.4.2-.7 0-.5-.5-1-1.4-1zm2.6-2.5c-.1.5-.5 1-1 1.2 0 0-.1 0-.1 0v0c .4 0 .7.2 1 .4.2-.3.2-.7.2-1.1-.1-.1-.1-.3-.1-.5zm-5.9-.7v0 7.4c0 .6.4 1 1 1h2.7c1.8 0 3-1 3-2.9 0-.2 0-.4-.1-.5-.3 1.4-1.4 2.1-2.9 2.1h-2.7c-.6 0-1-.4-1-1zm2.9-.5h-1v1.3h1c .3 0 .7.1.8.3.1-.2.2-.4.2-.7.1-.6-.4-.9-1-.9z" fill="#8a272c"/>
      <path id="Fill-6" d="m45.6 82.4h-3.6l-.4 1.2c-.1.4-.4.7-.9.7-.3 0-.6-.1-.8-.4l-.1.3c0 .1-.1.2-.1.4 0 .5.4.9 1 .9.5 0 .8-.3.9-.7l.4-1.2h3.6l.4 1.2c.1.4.4.7.9.7.5 0 .9-.4.9-.9 0-.1 0-.3-.1-.5v-.1c-.2.2-.4.3-.7.3-.5 0-.8-.3-.9-.7zm-1.7-5.6v0l-.8 2.2v0l-.5 1.6h.4l.8-2.6v0l .8 2.6h.4z" fill="#8a272c"/>
      <path id="Fill-8" d="m48.5 77.1v0 7.4c0 .7.4 1.1 1 1.1h3.2c.4 0 .7-.2.8-.5.1.3.5.5.9.5.5 0 .8-.3.9-.7l.4-1.2h3.6l.4 1.2c.1.4.4.7.9.7.5 0 .9-.4.9-.9 0-.1 0-.3-.1-.5l-.1-.2c-.2.2-.4.3-.7.3-.5 0-.8-.3-.9-.7l-.4-1.2h-3.6l-.4 1.2c-.1.4-.4.7-.9.7v0 0 0c0 0 0 0 0 0v0 0c0 0 0 0 0 0v0c0 0 0 0 0 0v0c-.3 0-.6-.2-.7-.4l-.1.2c0-.1-.1-.1-.1-.2-.1.1-.2.2-.4.2 0 0 0 0 0 0 0 0 0 0 0 0-.1 0-.2 0-.3 0v0c0 0 0 0 0 0v0c0 0 0 0 0 0v0 0c0 0 0 0 0 0v0 0 0 0h-3.2c-.6 0-1-.4-1-1.1v-5.9zm9-.3v0l-.7 2.2v0l-.5 1.6h.4l.8-2.6v0l .8 2.6h.4l-.5-1.6v0z" fill="#8a272c"/>
      <path id="Fill-10" d="m62.1 77.2v0 7.4c0 .8.6 1 1 1h2.3c2.7 0 4.4-1.8 4.4-4.6 0-.2 0-.4 0-.7-.2 2.4-1.9 4-4.4 4h-2.3c-.4 0-1-.2-1-1zm3.2-.5h-1.2v1.3h1.2c1.5 0 2.3.9 2.5 2.3 0-.2 0-.4 0-.6 0-.2 0-.4 0-.6 0 0 0 0 0 0-.2-1.5-1-2.4-2.5-2.4z" fill="#8a272c"/>
      <path id="Fill-12" d="m72.6 78.4v0 .5.7 0l4.1 5.5c.2.2.6.4.8.4.6 0 1-.4 1-1v-1.3c0 .7-.4 1-1 1-.2 0-.6-.2-.8-.4l-3.7-5v0zm-1.9-1.3v0 7.5c0 .7.4 1 1 1 .6 0 1-.4 1-1v-1.3c0 .7-.4 1-1 1-.6 0-1-.4-1-1z" fill="#8a272c"/>
      <path id="Fill-14" d="m84.9 82.4h-3.6l-.4 1.2c-.1.4-.4.7-.9.7-.3 0-.6-.1-.8-.4l-.1.3c0 .1-.1.2-.1.4 0 .5.4.9 1 .9.5 0 .8-.3.9-.7l.4-1.2h3.6l.4 1.2c.1.4.4.7.9.7.5 0 .9-.4.9-.9 0-.1 0-.3-.1-.5v-.1c-.2.2-.4.3-.7.3-.5 0-.8-.3-.9-.7zm-1.8-5.6v0l-.5 1.6v0l-.7 2.2h.4l.8-2.6v0l .8 2.6h.4l-.7-2.3v0z" fill="#8a272c"/>
      <path id="Fill-16" d="m94.5 65.5c0 3.5-2.8 6.4-6.3 6.4v0 0c-1.3 0-2.6-.4-3.6-1.2-1 .7-2.2 1.2-3.6 1.2h-25.5v0c-1.3 0-2.6-.4-3.6-1.2-1 .7-2.2 1.2-3.6 1.2v0 0c-1.3 0-2.3-.9-2.6-2.1 0 .2-.1.4-.1.6 0 1.5 1.2 2.7 2.7 2.7 1.3 0 2.6-.4 3.6-1.2 1 .7 2.2 1.2 3.6 1.2h25.6c1.3 0 2.6-.4 3.6-1.2 1 .7 2.3 1.2 3.6 1.2 3.4 0 6.3-2.9 6.3-6.4v-1.2z" fill="#8a272c"/>
      <path id="Fill-18" d="m45.4 65.5c0 3.5-2.8 6.4-6.3 6.4v0 0c-3.4 0-6.1-2.7-6.3-6.1v1c0 3.5 2.8 6.4 6.3 6.4 3.4 0 6.3-2.9 6.3-6.4z" fill="#8a272c"/>
      <path id="Fill-20" d="m62.3 11.1c-36.6 0-49.5 19.7-49.5 47.4 0 27.7 12.9 43.7 49.5 43.7 36.6 0 49.5-16 49.5-43.7 0-27.7-12.9-47.4-49.5-47.4m0 84.6c-32 0-43.3-13.7-43.3-37.5 0-23.7 11.3-40.6 43.3-40.6 32 0 43.3 16.9 43.3 40.6 0 23.8-11.3 37.5-43.3 37.5" fill="#f1bc7b"/>
      <path id="Fill-22" d="m55.4 45l .3-.5c0 0 6.7 6.6 6.8 6.2.2-.4-.1-2.1-.1-2.1l-5.7-5.3.5-.2c0 0 5.1 4.5 5.1 3.9 0-1.4-1.6-1.2-1.6-4 0-.2.1-1.9.1-1.9l.8.4c0 0 0 2.1.2 2.6.2.4.8.8.8.2.1-.6.1-2.8.1-2.8h1.3v3.1c0 .9.7-.2.8-.7.1-.5.1-2.6.1-2.6l.8-.2c0 0 .3 2.9-.1 3.8-.4.9-.8 1.5-.8 3.1 0 1.6-.1 3.3 0 3.6 0 1.5 1.2 1.5 1.3.8.2-1.2.2-22.4.2-22.4l.6-.6c0 0-.4 20.8.2 21.4.6.5 5.6-6.9 5.7-8.3 0-1.4-.5-5.7-.5-5.7l.4-.1 1.1 5.2 2.3-2.1.5.5c0 0-2.1 1.6-2.7 2.5-.6.8-7.5 13.6-7.5 13.6l-.2 9.9h-2.8c-.1-10.9-.1-8.8-.1-9.9 0-2.5-6.4-9.6-7.9-11.4" fill="#f3bb7d"/>
      <path id="Fill-24" d="m65.9 52.9c0 0-.1 0-.1 0 .1 0 .1 0 .1 0zm-8.8-5.9c-.1 0-.1.1-.2.1 3.4 4 6 7.7 6.4 10.1 0-.3 0-.3 0-.7 0-2-3.7-6.6-6.2-9.5zm9.7-1.1c0 2.8.1 4.9.3 5.1 0 0 0 0 .1 0 .1 0 .1 0 .2-.1-.1-.9-.2-2.8-.3-5 0 0-.1 0-.3 0zm-7.2-.1c-.1 0-.1 0-.2.1l3.2 3.3c0 0 0 .2.1.5 0-.5-.1-1.1-.1-1.1zm5.8 0c-.3.6-.5 1.2-.5 2.3 0 1 0 2 0 2.7 0-.3.1-.6.1-1 0-2.6.5-3.1.9-4-.1 0-.3 0-.5 0zm-3.7-.2c-.1 0-.3 0-.4 0 .4.7.8 1 1.1 1.5 0 0 0 0 0 0 0 0 .1 0 .1 0v0c-.1-.8-.4-1.1-.8-1.5zm14.1-4.5c-.7.5-1.5 1.3-1.9 1.8-.6.8-7.5 13.6-7.5 13.6v.9c1.3-2.4 7.1-13.2 7.6-13.9.4-.6 1.6-1.6 2.2-2.2-.1 0-.2-.1-.4-.2zm-8.8-6c-.1 0-.1 0-.2.1 0 .6 0 1.3 0 2 .1.1.1.1.2.2 0-.8 0-1.5 0-2.3z" fill="#8a272c"/>
      <path id="Fill-26" d="m55.4 45l .3-.5c0 0 6.7 6.6 6.8 6.2.2-.4-.1-2.1-.1-2.1l-5.7-5.3.5-.2c0 0 5.1 4.5 5.1 3.9 0-1.4-1.6-1.2-1.6-4 0-.2.1-1.9.1-1.9l.8.4c0 0 0 2.1.2 2.6.2.4.8.8.8.2.1-.6.1-2.8.1-2.8h1.3v3.1c0 .9.7-.2.8-.7.1-.5.1-2.6.1-2.6l.8-.2c0 0 .3 2.9-.1 3.8-.4.9-.8 1.5-.8 3.1 0 1.6-.1 3.3 0 3.6 0 1.5 1.2 1.5 1.3.8.2-1.2.2-22.4.2-22.4l.6-.6c0 0-.4 20.8.2 21.4.6.5 5.6-6.9 5.7-8.3 0-1.4-.5-5.7-.5-5.7l.4-.1 1.1 5.2 2.3-2.1.5.5c0 0-2.1 1.6-2.7 2.5-.6.8-7.5 13.6-7.5 13.6l-.2 9.9h-2.8c-.1-10.9-.1-8.8-.1-9.9 0-2.5-6.4-9.6-7.9-11.4" fill="#f1bc7b"/>
      <path id="Fill-28" d="m63.8 66.4h-.4zm2.4-.5v.6h-.1v0h .1c0-.3 0-.4 0-.6z" fill="#af5b51"/>
      <polygon id="Fill-30" fill="#a25a50" points="66.1 66.4 63.8 66.4"/>
      <path id="Fill-32" d="m63.3 45.6c-.2.2-.3.2-.5.3.3.4.3.8.3 1.5 0 0 .3 4.6-.2 4.6 0 0-.1 0-.1-.1-.8-1-1.2-1.3-1.4-1.3-.2 0-.2.3 0 .5.3.5 3 4.5 3 5.8 0 .4 0 .4 0 .7-.3 3.1-.7 5.6-.7 8.8h2.8v-.6c-.5-4-1-8.8-1-8.8l.1-.4c.3-.5 1.4-2.6 2.7-4.9.3-.5.4-.9.2-.9-.2 0-.9.6-1.7 2.3-.3.6-.8 1.1-1.2 1.1 0 0 0 0 0 0-.8-.1-1.4-.7-1.5-2.1 0-.1 0-.4 0-.8 0-.7 0-1.7 0-2.8 0-1 .2-1.7.4-2.3-.1 0-.1 0-.2 0-.3 0-.7-.1-.9-.6 0 0-.1 0-.1 0" fill="#f5cd9b"/>
      <path id="Fill-34" d="m32.9 75.9c0-.6.4-1 1-1h2.5c1.3 0 2.4.9 2.4 2.3 0 .9-.4 1.5-1.2 1.9v0c1.1.2 2 1.1 2 2.2 0 1.9-1.2 2.9-3 2.9h-2.7c-.6 0-1-.4-1-1zm1.9 2.7h1c .6 0 1-.4 1-1 0-.6-.5-.9-1-.9h-1zm0 3.9h1.5c.7 0 1.2-.4 1.2-1.2 0-.6-.5-1-1.4-1h-1.4v2.2z" fill="#fff"/>
      <path id="Fill-36" d="m42.5 75.8c.2-.6.7-1.1 1.4-1.1.7 0 1.2.5 1.4 1.1l2.5 7.2c.1.2.1.4.1.5 0 .5-.4.9-.9.9-.5 0-.8-.3-.9-.7l-.4-1.2h-3.7l-.4 1.2c-.1.4-.4.7-.9.7-.5 0-1-.4-1-.9 0-.2.1-.4.1-.4zm.1 4.8h2.5l-1.2-3.8v0z" fill="#fff"/>
      <path id="Fill-38" d="m48.5 75.8c0-.7.4-1 1-1 .6 0 1 .4 1 1v6.6h2.3c.7 0 .9.5.9 1 0 .4-.4.9-.9.9h-3.2c-.6 0-1-.4-1-1.1v-7.4z" fill="#fff"/>
      <path id="Fill-40" d="m56.1 75.8c.2-.6.7-1.1 1.4-1.1.7 0 1.2.5 1.4 1.1l2.5 7.2c.1.2.1.4.1.5 0 .5-.4.9-.9.9-.5 0-.8-.3-.9-.7l-.4-1.2h-3.6l-.4 1.2c-.1.4-.4.7-.9.7-.5 0-1-.4-1-.9 0-.2.1-.4.1-.4zm.2 4.8h2.5l-1.2-3.8v0z" fill="#fff"/>
      <path id="Fill-42" d="m62.1 75.9c0-.6.4-1 1-1h2.1c2.9 0 4.6 1.9 4.6 4.8 0 2.8-1.8 4.6-4.4 4.6h-2.3c-.4 0-1-.2-1-1zm2 6.6h1.3c1.7 0 2.4-1.3 2.4-2.8 0-1.7-.8-2.9-2.6-2.9h-1.2v5.7z" fill="#fff"/>
      <path id="Fill-44" d="m70.7 75.8c0-.7.4-1 1-1 .2 0 .6.2.8.4l4.1 5.6v0-5c0-.7.4-1 1-1 .6 0 1 .4 1 1v7.5c0 .7-.4 1-1 1-.2 0-.6-.2-.8-.4l-4.1-5.5v0 4.9c0 .7-.4 1-1 1-.6 0-1-.4-1-1z" fill="#fff"/>
      <path id="Fill-46" d="m81.7 75.8c.2-.6.7-1.1 1.4-1.1.7 0 1.2.5 1.4 1.1l2.5 7.2c.1.2.1.4.1.5 0 .5-.4.9-.9.9-.5 0-.8-.3-.9-.7l-.4-1.2h-3.6l-.4 1.2c-.1.4-.4.7-.9.7-.5 0-1-.4-1-.9 0-.2.1-.4.1-.4zm.2 4.8h2.5l-1.2-3.8v0z" fill="#fff"/>
      <path id="Fill-48" d="m39.2 71.9c-3.4 0-6.3-2.9-6.3-6.4v-14.8c0-1.5 1.2-2.7 2.7-2.7 1.5 0 2.7 1.2 2.7 2.7v14.8c0 .5.4.9.9.9.5 0 .9-.4.9-.9v-4.5c0-1.5 1.2-2.7 2.7-2.7 1.5 0 2.7 1.2 2.7 2.7v4.5c-.1 3.5-2.9 6.4-6.3 6.4" fill="#fff"/>
      <path id="Fill-50" d="m91.8 58.3c-1.5 0-2.7 1.2-2.7 2.7v4.5c0 .5-.4.9-.9.9-.5 0-.9-.4-.9-.9v-14.8c0-1.5-1.2-2.7-2.7-2.7-1.5 0-2.7 1.2-2.7 2.7v14.6c0 .1 0 .1 0 .2 0 .5-.4.9-.9.9h-25.5c-.5 0-.9-.4-.9-.9 0-.1 0-.1 0-.2v-4.2c0-1.5-1.2-2.7-2.7-2.7-1.5 0-2.7 1.2-2.7 2.7v4.5c0 .5-.4.9-.9.9-1.5 0-2.7 1.2-2.7 2.7 0 1.5 1.2 2.7 2.7 2.7 1.3 0 2.6-.4 3.6-1.2 1 .7 2.2 1.2 3.6 1.2h25.6c1.3 0 2.6-.4 3.6-1.2 1 .7 2.3 1.2 3.6 1.2 3.4 0 6.3-2.9 6.3-6.4v-4.5c-.1-1.5-1.3-2.7-2.8-2.7" fill="#fff"/>
      <path id="Fill-52" d="m36.2 80.3c.9 0 1.4.4 1.4 1 0-.5-.5-1-1.4-1m1.5-1.2c0 0 0 0 0 0 0 0 0 0 0 0" fill="#c6a29a"/>
      <path id="Fill-54" d="m34.8 80.3v0h1.4c.9 0 1.4.4 1.4 1 0 .7-.5 1.2-1.2 1.2h-1.5v-2.2zm-1.9-1.3v4.3c0 .6.4 1 1 1h2.7c1.8 0 3-1 3-2.9 0-1.2-.9-2.1-2-2.2v0c0 0 .1 0 .1 0 0 0 .1 0 .1-.1-1.6-.1-3.3-.1-4.9-.1z" fill="#efeeed"/>
      <path id="Fill-56" d="m41.3 79l-1.4 4c0 .1-.1.2-.1.4 0-.2.1-.4.1-.4z" fill="#cca49c"/>
      <polygon id="Fill-58" fill="#c6a29a" points="42.6 80.6 43.1 79"/>
      <path id="Fill-60" d="m41.3 79l-1.4 4c0 .1-.1.2-.1.4 0 .5.4.9 1 .9.5 0 .8-.3.9-.7l.4-1.2h3.6l.4 1.2c.1.4.4.7.9.7.5 0 .9-.4.9-.9 0-.1 0-.3-.1-.5l-1.4-4c-.6 0-1.2 0-1.8 0l .5 1.6h-2.5l.5-1.6c-.6.1-1.2.1-1.8.1" fill="#efeeed"/>
      <path id="Fill-62" d="m53.5 83.8c0 0 0 0 0 0 0 0 0 0 0 0zm .9-3.4l-.9 2.5v0z" fill="#cca49c"/>
      <path id="Fill-64" d="m53 84.2c-.1 0-.2 0-.3 0 .2.1.2.1.3 0zm3.8-5.2v0l-.5 1.6zm1.4 0v0l .5 1.6z" fill="#c6a29a"/>
      <path id="Fill-66" d="m50.4 79h-1.9v4.1c0 .7.4 1.1 1 1.1h3.2v0 0c0 0 0 0 0 0v0 0 0c0 0 0 0 0 0v0c0 0 0 0 0 0v0 0c .1 0 .2 0 .3 0 0 0 0 0 0 0 0 0 0 0 0 0 .2-.1.4-.2.5-.4 0 0 0 0 0 0-.1-.1-.1-.3-.1-.4 0-.2.1-.4.1-.4v-.1 0 0c-.1-.3-.4-.5-.8-.5 0 0 0 0 0 0v0 0c0 0 0 0 0 0v0 0h-2.3z" fill="#efeeed"/>
      <path id="Fill-68" d="m60 79c-.6 0-1.2 0-1.8 0l .5 1.6h-2.5l.5-1.6c-.6 0-1.2 0-1.8 0l-.5 1.4-.9 2.5v.1c0 .1-.1.2-.1.4 0 .1 0 .3.1.4v0 0c .1.3.5.5.8.5v0c0 0 0 0 0 0v0c0 0 0 0 0 0v0c0 0 0 0 0 0v0 0 0 0c .5 0 .8-.3.9-.7l.4-1.2h3.6l.4 1.2c.1.4.4.7.9.7.5 0 .9-.4.9-.9 0-.1 0-.3-.1-.5z" fill="#efeeed"/>
      <path id="Fill-70" d="m67.8 79v0c0 .2 0 .4 0 .6 0-.2 0-.4 0-.6" fill="#c6a29a"/>
      <path id="Fill-72" d="m69.8 79c-.7 0-1.3 0-2 0 0 .2 0 .4 0 .6 0 1.6-.8 2.8-2.4 2.8h-1.3v-3.4c-.6 0-1.3 0-1.9 0v4.3c0 .8.6 1 1 1h2.3c2.7 0 4.4-1.8 4.4-4.6-.1-.3-.1-.5-.1-.7" fill="#efeeed"/>
      <path id="Fill-74" d="m72.6 78.9c-.6 0-1.3 0-1.9 0v4.4c0 .7.4 1 1 1 .6 0 1-.4 1-1v-4.4z" fill="#efeeed"/>
      <polygon id="Fill-76" fill="#cca49c" points="75.1 78.9 76.6 80.8"/>
      <polygon id="Fill-78" fill="#c6a29a" points="73 78.9 76.7 83.9"/>
      <path id="Fill-80" d="m78.5 78.7c-.6 0-1.3.1-1.9.1v2 0l-1.4-2c-.7 0-1.4 0-2.1.1l3.7 5c .2.2.6.4.8.4.6 0 1-.4 1-1v-4.6z" fill="#efeeed"/>
      <path id="Fill-82" d="m85.3 78.1v0l1.7 4.9c.1.2.1.4.1.5 0-.1 0-.3-.1-.5z" fill="#cca49c"/>
      <path id="Fill-84" d="m82.6 78.4v0l-.7 2.2zm1-.1v0l .7 2.3z" fill="#c6a29a"/>
      <path id="Fill-86" d="m85.3 78.1c-.4 0-.8.1-1.2.1-.2 0-.4 0-.5.1l.7 2.3h-2.5l.7-2.2c-.6.1-1.2.1-1.8.2l-1.6 4.4c0 .1-.1.2-.1.4 0 .5.4.9 1 .9.5 0 .8-.3.9-.7l.4-1.2h3.6l.4 1.2c.1.4.4.7.9.7.5 0 .9-.4.9-.9 0-.1 0-.3-.1-.5z" fill="#efeeed"/>
      <path id="Fill-88" d="m90.3 76c-1.6 0-2.9 1.4-2.9 3 0 1 .6 1.9 1.4 2.3-.1.2-.2.5-.2.7 0 .7.6 1.3 1.3 1.3v0c2.1 0 3.9-1.8 3.9-4-.1-1.8-1.6-3.3-3.5-3.3z" fill="#8a272c"/>
      <path id="Fill-90" d="m89.8 82.2c2.1 0 3.9-1.9 3.9-4 0-1.9-1.5-3.4-3.4-3.4-1.6 0-3 1.3-3 3 0 1 .6 1.9 1.4 2.3-.1.2-.2.5-.2.7 0 .7.6 1.3 1.3 1.4" fill="#fff"/>
      <path id="Fill-92" d="m93.3 76.5c-.6 1.3-2 2.2-3.5 2.2-.7 0-2.1-1-1.9-2.8-.3.5-.5 1.1-.5 1.7 0 1 .6 1.9 1.4 2.3-.1.2-.2.5-.2.7 0 .7.6 1.3 1.3 1.4 2.1 0 3.9-1.9 3.9-4-.1-.5-.3-1-.5-1.5" fill="#eaeaea"/>
      <path id="Fill-94" d="m43.5 50.4v0c-1.9 0-3.4 1.5-3.4 3.4 0 2.2 1.7 4 3.9 4v0c .7 0 1.3-.6 1.3-1.3 0-.3-.1-.5-.2-.7.8-.5 1.4-1.3 1.4-2.3 0-1.8-1.3-3.1-3-3.1" fill="#8a272c"/>
      <path id="Fill-96" d="m44 56.6c-2.1 0-3.9-1.9-3.9-4 0-1.9 1.5-3.4 3.4-3.4 1.6 0 3 1.3 3 3 0 1-.6 1.9-1.4 2.3.1.2.2.5.2.7.1.7-.6 1.3-1.3 1.4" fill="#fff"/>
      <path id="Fill-98" d="m40.6 50.9c.6 1.3 2 2.2 3.5 2.2.7 0 2.1-1 1.9-2.8.3.5.5 1.1.5 1.7 0 1-.6 1.9-1.4 2.3.1.2.2.5.2.7 0 .7-.6 1.3-1.3 1.4-2.1 0-3.9-1.9-3.9-4 .1-.5.2-1 .5-1.5" fill="#eaeaea"/>
      <path id="Fill-100" d="m32.9 62.1v3.4c0 .1 0 .2 0 .3v-3.4c0-.1 0-.2 0-.3" fill="#90262b"/>
      <path id="Fill-102" d="m32.9 62.4v3.4c.2 3.4 2.9 6.1 6.3 6.1v0c-3.4 0-6.3-2.9-6.3-6.4z" fill="#83282c"/>
      <path id="Fill-104" d="m45.4 62.1c0 3.5-2.8 6.4-6.3 6.4-3.4 0-6.1-2.7-6.3-6.1v3.1c0 3.5 2.8 6.4 6.3 6.4 3.4 0 6.3-2.9 6.3-6.4z" fill="#eaeaea"/>
      <path id="Fill-106" d="m46.2 67.5c-.4.5-.6 1.1-.6 1.7 0 .2 0 .4.1.6 0 0 0 0 0 0 0-.2-.1-.4-.1-.6 0-.7.2-1.2.6-1.7 0 0 0 0 0 0" fill="#90262b"/>
      <path id="Fill-108" d="m51.9 70.8c0 0 0 0 0 0 1 .7 2.2 1.2 3.6 1.2v0c-1.4-.1-2.6-.5-3.6-1.2m32.8 0v0c1 .7 2.2 1.2 3.6 1.2v0c-1.4-.1-2.6-.5-3.6-1.2m-39-1c0 0 0 0 0 0 .3 1.2 1.3 2.1 2.6 2.1v0c-1.3 0-2.3-.9-2.6-2.1" fill="#83282c"/>
      <path id="Fill-110" d="m94.5 62.1c0 3.5-2.8 6.4-6.3 6.4-1.3 0-2.6-.4-3.6-1.2-1 .7-2.3 1.2-3.6 1.2h-25.5c-1.3 0-2.6-.4-3.6-1.2-1 .7-2.3 1.2-3.6 1.2-.9 0-1.6-.4-2.1-1.1-.4.5-.6 1-.6 1.7 0 .2 0 .4.1.6.3 1.2 1.3 2.1 2.6 2.1 1.3 0 2.6-.4 3.6-1.2 0 0 0 0 0 0 0 0 0 0 0 0 1 .7 2.2 1.2 3.6 1.2h25.6c1.3 0 2.6-.4 3.6-1.2 0 0 0 0 0 0v0c1 .7 2.2 1.2 3.6 1.2 3.4 0 6.3-2.9 6.3-6.4v-3.3z" fill="#eaeaea"/>
      <path id="Fill-112" d="m66.4 34.3c-.3.3-.4.7-.5 1.1 0 .2 0 .4.1.6.1-.2.2-.4.4-.6 0-.3 0-.7 0-1v0 0 0 0 0 0 0 0 0zm1.2-.4c-.2 0-.4 0-.6.1 0 .4 0 .8 0 1.2.2-.1.4-.1.6-.1.2 0 .4 0 .7.1.7.2.9.7.9 1.3 0-1.1.2-2.2-.9-2.5-.3-.1-.5-.1-.7-.1" fill="#8a272c"/>
      <path id="Fill-114" d="m67 33.9c0 0-.1 0-.1.1 0 .4 0 .8 0 1.2.1 0 .1 0 .2-.1-.1-.4-.1-.8-.1-1.2" fill="#7e282c"/>
      <path id="Fill-116" d="m66.9 34c-.2.1-.3.2-.5.3v0 0 0 0 0 0 0 0 0 0 0 0 0c0 .3 0 .6 0 1 .1-.1.3-.2.5-.3 0-.2 0-.6 0-1" fill="#d5a772"/>
      <path id="Fill-118" d="m76.6 40.5c0 0-.1.1-.2.1l.3.3c0 0-.2.2-.5.4.7.5.7 1 .9 1.3.3.5.9 3.1 2.4 3.1.4 0 .8-.2 1.3-.6.7-.6 1.7-.8 2.8-.8 2.7 0 6 1.5 7.1 1.9 1.1.5 4.5 2.3 6.8 2.3.8 0 1.4-.2 1.8-.8.4-.7.4-1.2.2-1.8-.1.2-.1.4-.2.6-.3.6-1 .8-1.8.8-2.2 0-5.6-1.9-6.8-2.3-1.1-.5-4.4-1.9-7.1-1.9-1.1 0-2 .2-2.8.8-.5.4-1 .6-1.3.6-1.5 0-2.1-2.7-2.4-3.1-.1-.2-.2-.5-.5-.9m-3.4-1.2l.3 1.2c.7.1 1.2.2 1.6.3l.9-.8c-.5-.3-1.3-.5-2.8-.7m-4-2.2c0 1.5-.3 3.4 2.8 3.4.3 0 .5 0 .7 0 0 0 0-.1 0-.1 0-.4-.1-.8-.1-1.1-.2 0-.4 0-.6 0-2.3-.1-2.7-1.1-2.8-2.2m22-3.2c-.1.8-.3 1.6-.1 2.2 0-.7.2-1.6.1-2.2" fill="#8a272c"/>
      <path id="Fill-120" d="m76.4 40.6c-.2.1-.4.3-.6.5.2.1.3.2.4.2.3-.2.5-.4.5-.4zm-3.8-1.3c0 .4.1.7.1 1.1 0-.4 0-.7-.1-1.1 0 0 0 0 0 0z" fill="#7e282c"/>
      <path id="Fill-122" d="m76 40l-.9.8c.3.1.5.2.7.3.4-.3.7-.5.8-.6-.1-.2-.3-.3-.6-.5m-3.4-.7c0 .4.1.8.1 1.2.3 0 .5 0 .8.1l-.3-1.2c-.1-.1-.4-.1-.6-.1" fill="#d5a772"/>
      <path id="Fill-124" d="m58.6 45c-.5.2-1 .5-1.4.8.2.2.5.5.8.8.4-.2.9-.5 1.5-.7zm7.5-.4c0 .5-.1.9-.2 1.2 0 0 0 0 0 0 .2 0 .3 0 .4 0 0-.4 0-.8 0-1.2 0 0-.1 0-.2 0zm-1.9-.1v.4c0 0 0 0 .1 0 .1 0 .3-.2.4-.4 0 0-.1 0-.1 0-.1 0-.2 0-.4 0zm-3.2-.1c-.5 0-1 .1-1.4.2-.1 0-.2.1-.3.1.4.3.8.6 1.1.9.3 0 .6-.1.9-.1-.1-.2-.3-.6-.3-1.1zm1.1 0c .1.2.3.3.4.3.1 0 .2-.1.2-.2-.2-.1-.4-.1-.6-.1zm8.9-.9c-.4.9-1.7 1.1-3.4 1.1-.2 0-.3 0-.5 0 0 .4 0 .8 0 1.2.2 0 .3 0 .5 0 1.9 0 3.3-.3 3.5-1.4.1-.2 0-.5-.1-.9zm-26.1-.5c-2.9 0-2.9 1.7-7.5 2.8-.7.2-1.3.2-1.8.2-1 0-1.6-.3-2.3-.5-.6-.3-1.2-.5-2-.5-.2 0-.4 0-.6.1-.8.1-1.5.3-2 .3-.6 0-1-.2-1.2-.8-.2.4-.2.7-.1 1 .3.5 1.1 1 2.2 1 .4 0 .7-.1 1.1-.2.2-.1.4-.1.5-.1.6 0 1.2.2 1.9.5.7.2 1.6.5 2.7.5.6 0 1.3-.1 2-.3 4.6-1.1 4.3-2.8 7.1-2.8.4 0 .8 0 1.3.1 4.2.5 5 4.1 7.3 4.1 0 0 .1 0 .1 0 1.4-.1 2.3-.7 3.3-1.3-.2-.3-.5-.5-.7-.8-.8.5-1.6.8-2.7.9 0 0-.1 0-.1 0-2.3 0-3.2-3.6-7.3-4.1-.5-.1-.9-.1-1.2-.1zm-15.7-5.9c0 .1 0 .1 0 0-.4.9.3 1.5.5 2.6.2-1.2-.2-1.9-.5-2.6z" fill="#8a272c"/>
      <path id="Fill-126" d="m56.5 46.2c-.1 0-.1.1-.2.1.2.3.5.5.7.8.1 0 .1-.1.2-.1-.3-.3-.5-.5-.7-.8zm2.1-1.2c0 0 0 0 0 0l .8.9c.1 0 .1 0 .2-.1zm8.2-.4c0 .4 0 .8 0 1.2.1 0 .2 0 .4 0 0-.4 0-.8 0-1.2-.2 0-.3 0-.4 0zm-.9 0c0 .1-.1.3-.1.4-.1.3-.3.5-.4.8.2 0 .3 0 .5 0 0 0 0 0 0 0 .1-.3.2-.7.2-1.2-.1 0-.1 0-.2 0zm-1.7-.1v.2c0 .1 0 .2.1.3l-.1-.5c0 0 0 0 0 0zm-3.2-.1c0 0 0 0 0 0 0 .5.1.9.3 1.2.1 0 .2 0 .4 0v0c-.3-.3-.5-.7-.7-1.2z" fill="#7e282c"/>
      <path id="Fill-128" d="m57.1 45.8c-.2.1-.4.3-.7.4.2.2.4.5.7.8.2-.2.5-.3.8-.5-.3-.2-.5-.5-.8-.7m2.2-1.1c-.2.1-.4.2-.6.2l.9.9c0 0 0 0 0 0 .2-.1.5-.1.8-.2-.4-.3-.8-.6-1.1-.9m7.1-.1c0 .4 0 .8 0 1.2.2 0 .3 0 .5 0 0-.4 0-.8 0-1.2-.2 0-.4 0-.5 0m-4.7-.2c-.2 0-.4 0-.7 0 .2.6.4.9.7 1.2.5 0 1 0 1.6.1 0 0 .1-.1.1-.1 0 0 0 .1 0 .1.4 0 .8.1 1.2.1.3 0 .5 0 .8.1.1-.3.3-.5.4-.8 0-.1.1-.2.1-.4-.4 0-.8 0-1.2-.1-.1.2-.3.4-.4.4 0 0-.1 0-.1 0 0 0-.1-.1-.1-.3v-.2c-.5 0-1-.1-1.4-.1 0 .2-.1.2-.2.2-.1 0-.3-.1-.4-.3-.1.1-.3.1-.4.1" fill="#d5a772"/>
      <path id="Fill-130" d="m63.4 45.5c0 0-.1.1-.1.1.1 0 .1 0 .2 0-.1 0-.1 0-.1-.1" fill="#d7b58c"/>
      <path id="Fill-132" d="m49.4 31c0 0-.1 0 0 0-.3.3.1 1.3.6 1.3v0 0c .5 0 1.3 1.1 2.1 1.3 0 0 0 0 0 0 0 0 0 0 0 0 .1 0 .3 0 .4 0 0 0 .1 0 .1 0 .4-.2.5-.6.5-.8 0-.3-.2-.4-.6-.4-.1 0-.2 0-.4 0 0 0 0 0 0 0-.3 0-.9-.3-1.4-.7-.5-.3-1.1-.7-1.3-.7m12.1-.4c-.7 0-1.7 1.2-2.3 1.5-.1.1-.3.1-.5.1-.4 0-1-.1-1.6-.2-.6-.1-1.2-.2-1.7-.2-.4 0-.7.1-.7.3-.1.3 0 .7.3 1 .1 0 .3-.1.5-.1.5 0 1.1.1 1.7.2.6.1 1.2.2 1.6.2.2 0 .4 0 .5-.1.6-.3 1.6-1.5 2.3-1.5.2 0 .4.1.5.4 0 0 0 .1 0 .1.1-.5.1-1.1 0-1.3-.2-.3-.4-.4-.6-.4" fill="#8a272c"/>
      <path id="Fill-134" d="m27.3 44.4c.4 1.4 1.7.9 3.3.7 1.2-.2 1.8.2 2.6.5.9.4 1.9.8 4.1.3 5.2-1.3 4.6-3.3 8.8-2.8 4.2.5 5 4.2 7.5 4.1 2.4-.1 3.5-1.8 6-2.6 1.1-.4 3.1-.2 5.1-.1 3.1.2 6.2.4 6.5-1.2.4-2.7-5.3-5.9-5.2-7.8.1-1.1 1-1.9 2.3-1.5 2.3.6-1.2 5.2 3.7 5.3 4.9.1 4.7 1.6 5.1 2.2.4.6 1.2 4.7 3.8 2.5 2.5-2.1 8.4.5 9.9 1.1 1.5.6 7.2 3.8 8.5 1.5 1.3-2.3-1.6-3.7-2.2-6-.6-2.3-5.1-2.9-5.8-3.9-.8-1.1.5-3.4-.3-4.4-.8-1.1-4.6-1.7-7.4-3.7-2.8-2.1-3-5.3-6.2-6.2-2.9-.8-4.6.2-6 1.3-1.2.8-2.3 1.7-3.8 1.5-3.3-.3-5.7-3.8-8.8-4.3-3.1-.5-5.9 2.7-7.4 4-3 2.7-4 1.6-7 2.4-1.5.4-2.7.2-3.6-.1-1-.2-1.6-.5-2.2 0-1 1-1.1 4.6-1.5 6.6-.2.9-1.3.7-2.7.5-1.9-.2-4.2-.4-5.2 1.8-.5 1.1.8 1.7.5 3.8-.3 1.6-2.8 3.1-2.4 4.5m27.5-12.3c.1-.5 1.3-.3 2.4-.1.9.1 1.7.3 2.1.1.8-.4 2.3-2.4 2.8-1.1.3.8-.1 3.3-1.6 3.3-.6 0-1.2-.1-1.7-.3-.7-.2-1.4-.4-1.9-.2-1 .5-2.3-.9-2.1-1.7m-5.5-1c .1-.2.8.2 1.4.6.6.4 1.2.7 1.4.7.6-.1 1 0 1 .4 0 .4-.3 1.1-1.1.9-.7-.2-1.5-1.3-2.1-1.3-.4-.1-.8-1.1-.6-1.3" fill="#f1bc7b"/>
      <path id="Fill-136" d="m35.5 36.5c3.1 0 4.6-2.1 5-3.8.2-.8.3-1.7.4-2.6 0-.4 1-.9 1.6-.9.7 0 2.7-.8 3.5-.8.3 0 .4.1.3.3-.6 1.5-.3 2.7.1 3.6.6 1.3 3.3 3 4.6 3.2.2 0 .3 0 .5 0 .5 0 1-.1 1.4-.2.5-.1.9-.2 1.2-.2.3 0 .4.1.5.3.4.9 1 1.1 1.6 1.1.2 0 .4 0 .6 0 .2 0 .4 0 .6 0 .3 0 .5.1.7.3.4.5.9.7 1.5.7.6 0 1.3-.2 1.9-.4.6-.2 1.1-.4 1.3-.4 0 0 .1 0 .1 0 .5.1 4.2 4 1.7 4-.3 0-.8-.1-1.4-.2-1-.3-2.7-1-3.9-1-.3 0-.6.1-.8.2-1.3 1.1-2.6 2.9-4.6 2.9 0 0-.1 0-.1 0-1.6 0-2.6-2.9-7.5-3.1-.1 0-.3 0-.4 0-2.3 0-4.2.9-5.8 1.8-1.6.9-2.9 1.8-4 1.8-.4 0-.8-.1-1.2-.4-1.4-1-5.3.4-3.2-1.7.6-.6 1.3-1.2 1.4-1.9.2-1-.7-2.1-.1-2.5.2-.1.4-.2.7-.2.5-.2 1.3.1 1.8.1m23.1-6.5c.1-.1.3-.2.4-.3.7-.6 1.5-1.3 2.5-1.3.9 0 1.6.5 1.9 1.4.4 1.1.2 2.9-.6 4.1-.6.9-1.5 1.4-2.4 1.5h-.1c-.9 0-1.6-.2-2.2-.4-.3-.1-.6-.2-.8-.2-.3.1-.7.2-1 .2-1 0-1.9-.6-2.4-1.3-.4.5-1 .9-1.8.9-.2 0-.4 0-.6-.1-.7-.2-1.2-.6-1.6-1-.1-.1-.3-.2-.4-.3-.7-.1-1.4-.7-1.8-1.5-.4-.9-.3-1.8.2-2.4.3-.4.7-.6 1.2-.6.6 0 1.2.4 2 .9.3.2.7.4.9.5.1 0 .2 0 .3 0 .4 0 .8.1 1.2.3.3-.4.8-.8 1.9-.8.6 0 1.3.1 2 .2.4.1.9.2 1.2.2m10.1-3.1c2.1 0 3.6-1.4 4.8-2.2 1-.7 1.5-1.1 2.2-1.1 0 0 0 0 0 0 .6 0 1.4.4 2.3 1.8.8 1.3 1.8 2.9 3.6 4.2 1.9 1.4 5.7 2.4 6.3 3.6.6 1.1-.4 2.5.6 4 .9 1.4 6 2.2 4.8 3.2-1 .8 2.6 1.7 1.6 2.6-.1.1-.2.1-.3.1-1.2 0-4.2-3.8-11.3-3.9v0c-.4 0-.8.1-1.2.3-.4.1-.9.3-1.2.3-.4 0-.8-.2-.9-.8-1-4.7-5.1-2.9-6.7-4.7-1.6-1.8.6-4.3-3.7-5.2-1-.2-1.7-.3-2.3-.3-.3 0-.5 0-.7 0-.2 0-.4 0-.6 0-.3 0-.6 0-1-.2-.9-.5-.4-1.8 2-1.8.3 0 .7 0 1 .1.3 0 .5 0 .7 0m-11.1-.3c-.7 0-1.6-.7-2.2-.7-.9 0-2-.1-1.6-.4.2-.2.5-.4.7-.7 1.3-1.7 2.6-2.3 3.6-2.3 1.1 0 2.1.7 2.7 1.3.4.3.9.8.7.8-2.3.4-2.6 1.4-3.4 1.8-.2.2-.3.2-.5.2m.4-5.4c-1.9 0-3.9 1.9-5.2 3.2-.2.2-.5.5-.7.6-2.4 2.2-3.9 2.3-5.6 2.5-.6 0-1.3.1-2.1.3-.7.2-1.4.3-2 .3-1.1 0-1.9-.2-2.6-.4-.2-.1-.5-.1-.6-.1-.3.6-.5 2.5-.7 3.5-.1.9-.2 1.7-.3 2.4-.1.6-.6 1.9-2.7 1.9-.5 0-1-.1-1.6-.1-.6-.1-1.2-.1-1.7-.1-1.3 0-1.9.4-2.2 1 0 .1.1.2.1.3.3.7.7 1.7.5 3.3-.2 1.3-1 2.2-1.7 3.1-.3.3-.7.9-.8 1.1.1.2.1.3.4.3.2 0 1.4-.2 1.6-.3.6-.1 1.1-.2 1.5-.2 2 0 2.4 1.1 3.3 1.1.3 0 .6-.1.9-.1 4-.5 6-3.4 8.9-3.4.1 0 .1 0 .2 0 .3 0 .6 0 1 .1 2.8.4 4.4 1.9 5.6 3.1.8.8 1.2 1.2 1.7 1.2 1-.1 1.7-.5 2.7-1.1.8-.5 1.8-1.1 3-1.5.7-.2 1.5-.3 2.6-.3 1 0 2 .1 3.1.1 1 .1 2.1.1 3 .1 1.3 0 1.9-.2 2.1-.3-.1-.8-1.7-2.5-2.6-3.4-1.5-1.6-2.9-2.9-2.7-4.5.1-1.8 1.4-3.1 3.2-3.1.3 0 .7 0 1.1.1 2.1.6 2.1 2.8 2.1 3.8 0 .5 0 1.2.1 1.4 0 0 .3.3 1.3.3 4.3.1 5.7 1.2 6.4 2.9v.1c.2.3.3.6.4 1 .1.3.5 1.4.8 1.6.1 0 .2-.1.4-.3.9-.8 2.2-1.2 3.8-1.2 2.9 0 6.2 1.4 7.6 2l .2.1c.2.1.6.3.9.4 1.4.7 3.9 1.9 5.4 1.9.4 0 .5-.1.5-.1.3-.5.2-.8-.8-2.2-.6-.8-1.3-1.7-1.6-2.9-.2-.7-1.9-1.5-3-1.9-1.2-.5-2.2-.9-2.7-1.7-.7-1.1-.6-2.4-.4-3.4 0-.3.1-.9.1-1.2-.3-.2-1.3-.6-2-.9-1.6-.6-3.5-1.4-5.2-2.6-1.5-1.1-2.3-2.4-3-3.6-.9-1.5-1.5-2.3-2.7-2.6-.6-.2-1.1-.2-1.6-.2-1.5 0-2.4.7-3.6 1.5-1.1.8-2.4 1.7-4.1 1.7-.2 0-.3 0-.5 0-2.1-.2-3.9-1.5-5.5-2.6-1.2-.9-2.4-1.7-3.6-1.9-.1-.1-.2-.1-.4-.1" fill="#f5c992"/>
      <path id="Fill-138" d="m45.9 28.4c-.8 0-2.8.8-3.5.8-.5 0-1.5.5-1.6.9-.1.9-.2 1.8-.4 2.6-.4 1.8-1.9 3.8-5 3.8-.4 0-1.3-.3-2-.3-.3 0-.5 0-.7.2-.6.5.3 1.5.1 2.5-.1.7-.8 1.3-1.4 1.9-2 2.1 1.9.7 3.2 1.7.4.3.8.4 1.2.4 1.1 0 2.4-.9 4-1.8 1.6-.9 3.4-1.8 5.8-1.8.1 0 .3 0 .4 0 4.9.2 5.9 3 7.5 3.1 0 0 .1 0 .1 0 2 0 3.4-1.9 4.6-2.9.2-.2.5-.2.8-.2 1.1 0 2.9.8 3.9 1 .6.2 1.1.2 1.4.2 2.5 0-1.2-3.9-1.7-4 0 0 0 0-.1 0-.2 0-.7.2-1.3.4-.6.2-1.3.4-1.9.4-.6 0-1.1-.2-1.5-.7-.2-.2-.4-.3-.7-.3-.2 0-.4 0-.6 0-.2 0-.4 0-.6 0-.6 0-1.2-.2-1.6-1.1-.1-.2-.3-.3-.5-.3-.3 0-.7.1-1.2.2-.5.1-.9.2-1.4.2-.2 0-.3 0-.5 0-1.2-.2-4-1.9-4.6-3.2-.4-.9-.7-2.1-.1-3.6.3 0 .2-.1-.1-.1m29.8-4.7c0 0 0 0 0 0-.7 0-1.2.3-2.2 1.1-1.1.8-2.7 2.2-4.8 2.2-.2 0-.4 0-.7 0-.4-.1-.7-.1-1-.1-2.4 0-2.9 1.3-2 1.8.3.2.6.2 1 .2.2 0 .3 0 .6 0 .2 0 .4 0 .7 0 .6 0 1.3.1 2.3.3 4.3.9 2.1 3.5 3.7 5.2 1.6 1.8 5.7 0 6.7 4.7.1.6.5.8.9.8.4 0 .8-.1 1.2-.3.4-.1.9-.3 1.2-.3v0c7 .1 10 3.9 11.3 3.9.1 0 .2 0 .3-.1 1-1-2.6-1.8-1.6-2.6 1.2-1-3.9-1.8-4.8-3.2-1.1-1.6-.1-2.9-.6-4-.6-1.1-4.4-2.1-6.3-3.6-1.8-1.4-2.8-3-3.6-4.2-.8-1.4-1.7-1.8-2.3-1.8" fill="#f8ddb9"/>
      <path id="Fill-140" d="m58.1 22.6c-1 0-2.3.6-3.6 2.3-.2.3-.5.5-.7.7-.4.4.7.4 1.6.4.6 0 1.5.7 2.2.7.2 0 .3 0 .5-.1.8-.4 1.1-1.4 3.4-1.8.2 0-.4-.5-.7-.8-.6-.7-1.6-1.4-2.7-1.4" fill="#f8ddb9"/>
   </g>
</svg>
