<svg width="150" height="75" viewBox="0 0 100 150" xmlns="http://www.w3.org/2000/svg" xmlns:xlink="http://www.w3.org/1999/xlink">
  <defs>
    <linearGradient id="linear-gradient" x1="0.035" y1="0.471" x2="0.983" y2="0.598" gradientUnits="objectBoundingBox">
      <stop offset="0" stop-color="#a97e29"/>
      <stop offset="0.27" stop-color="#c1912f"/>
      <stop offset="0.289" stop-color="#c69835"/>
      <stop offset="0.37" stop-color="#dbb34f"/>
      <stop offset="0.441" stop-color="#e8c45e"/>
      <stop offset="0.496" stop-color="#edca64"/>
      <stop offset="0.55" stop-color="#e6c25c"/>
      <stop offset="0.633" stop-color="#d6ac48"/>
      <stop offset="0.714" stop-color="#c1912f"/>
      <stop offset="0.995" stop-color="#a97e29"/>
    </linearGradient>
    <linearGradient id="linear-gradient-2" x1="0.508" y1="-0.187" x2="0.486" y2="1.043" xlink:href="#linear-gradient"/>
  </defs>
  <g id="Logo_English" data-name="Logo English" transform="translate(-380 -586)">
    <path id="Path_13" data-name="Path 13" d="M342.338,199.166l-4.492-11.76h-.081l-4.5,11.76L328.816,187.5l-4.458,11.662-4.491-11.76-4.5,11.76-4.5-11.76-4.491,11.76-4.5-11.76-4.5,11.76-4.495-11.76-4.5,11.76L283.89,187.4l-2.6,6.813-1.889,4.948-4.482-11.727-.011-.03-4.5,11.756-4.175-10.928v32.053a62.3,62.3,0,0,0,37.227,57.034c.8.351.975.428,1.8.756a3.316,3.316,0,0,0,1.112.253,3.408,3.408,0,0,0,1.112-.253c.818-.332,1-.4,1.8-.759a62.294,62.294,0,0,0,37.22-57.031V188.233Z" transform="translate(118.413 421.852)" fill="#7c0026"/>
    <path id="Path_14" data-name="Path 14" d="M274.926,148.529l4.482,11.841,4.492-11.841,4.492,11.841,4.5-11.841,4.495,11.841,4.5-11.841,4.5,11.841,4.492-11.841,4.5,11.841,4.5-11.841,4.492,11.841,4.458-11.841,4.454,11.841,4.5-11.841,4.572,11.841,4.181-11.841V131.414c-13.472-4.456-26.729-6.954-40.133-6.972-13.4.017-26.662,2.516-40.134,6.972V148.53l4.174,11.841Z" transform="translate(118.418 461.558)" fill="#fff"/>
    <path id="Path_15" data-name="Path 15" d="M346.519,132.38v-.962h-.008l-.125-.064c-13.752-4.52-26.84-6.888-40-6.9-13.16.017-26.248,2.385-40,6.9l-.126.064h-.008v.962l.147-.052c13.759-4.551,26.839-6.931,39.986-6.948,13.148.017,26.228,2.4,39.987,6.948C346.421,132.344,346.519,132.38,346.519,132.38Z" transform="translate(118.413 461.555)" fill="url(#linear-gradient)"/>
    <path id="Path_16" data-name="Path 16" d="M259.5,183.373V134.2h.008a86.244,86.244,0,0,1,11.923-5.115c.258-.1.234-.15.234-.17s-.011-.088-.235-.029c-4.337,1.129-8.716,2.455-13.163,3.925l-2.725.9v44.952a67.258,67.258,0,0,0,11.986,38.474,63.539,63.539,0,0,0,21.162,18.994,62.227,62.227,0,0,1-29.19-52.758Zm81.5-50.56c-4.446-1.471-8.826-2.8-13.163-3.925-.223-.059-.234.009-.234.029s-.024.066.234.17A86.242,86.242,0,0,1,339.76,134.2h.008v49.17a62.227,62.227,0,0,1-29.19,52.76,63.541,63.541,0,0,0,21.161-18.994,67.261,67.261,0,0,0,11.986-38.474v-44.95Z" transform="translate(125.168 458.769)" fill="url(#linear-gradient-2)"/>
    <g id="Group_8" data-name="Group 8" transform="translate(396.713 633.522)">
      <path id="Path_25" data-name="Path 25" d="M303.889,296.206c-2.238,0-5.021,1.279-5.021,4.251v4.438c0,2.489,1.954,3.787,3.9,4.143l1.543,1.6h0l.9.921c.245.245.545.207.846-.094l.9-.734c.32-.32.32-.639.075-.865l-.714-.809v-.006l-1.568-1.759-.7-.791a1.307,1.307,0,0,1-.152.013,1.87,1.87,0,0,1-2.087-1.9V300.7a2.107,2.107,0,0,1,4.194,0l.006,4.07a1.847,1.847,0,0,1-.359,1.143.3.3,0,0,0,.024.369l1.468,1.7a.3.3,0,0,0,.425.04,3.783,3.783,0,0,0,1.128-1.59l.01-.024c.01-.028.019-.056.028-.084a3.113,3.113,0,0,0,.1-.331l.013-.057a3.677,3.677,0,0,0,.061-.368c.009-.072.013-.147.018-.221s.009-.132.011-.2c0-.038.006-.073.006-.112v-4.577C308.948,297.485,306.127,296.206,303.889,296.206Zm51.139,12.054-2.652-3.855a4.049,4.049,0,0,0,2.614-3.742,4.1,4.1,0,0,0-1.091-2.952c-.79-.79-1.692-1.2-3.742-1.2h-4.739c-.433,0-.527.207-.527.545v11.265c0,.433.188.546.527.546h1.862c.338,0,.545-.113.545-.546v-9.177h2.5a1.6,1.6,0,0,1,1.73,1.6,1.682,1.682,0,0,1-1.786,1.523h-.376c-.432,0-.545.207-.545.546v1.5a1.825,1.825,0,0,0,.287,1.08l1.855,2.766.1.141a1,1,0,0,0,.94.564h2.219c.356,0,.456-.34.284-.6ZM339.06,297.07c-.169-.395-.357-.583-.771-.583h-1.806a.746.746,0,0,0-.771.583l-4.175,11.265c-.094.226-.094.527.32.527h1.974c.414,0,.564-.113.715-.564l.527-1.486h4.607l.526,1.486c.151.451.3.564.715.564H342.9c.414,0,.414-.3.32-.527Zm-3.084,7.109,1.41-4.156,1.411,4.156Zm-4.232-5.585v-1.561c0-.338-.113-.545-.546-.545h-8.726c-.433,0-.546.206-.546.545v1.561c0,.338.113.545.546.545h2.9v9.177c0,.433.207.546.545.546h1.862c.339,0,.546-.113.546-.546v-9.177H331.2c.431,0,.543-.207.543-.545Zm-13.9-1.524c-.169-.395-.357-.583-.771-.583h-1.806a.746.746,0,0,0-.771.583l-4.174,11.265c-.094.226-.094.527.32.527h1.974c.414,0,.564-.113.715-.564l.527-1.486h4.607l.526,1.486c.151.451.3.564.715.564h1.975c.414,0,.414-.3.32-.527Zm-3.084,7.109,1.411-4.156,1.41,4.156Z" transform="translate(-298.868 -280.281)" fill="#fff"/>
      <g id="Group_7" data-name="Group 7" transform="translate(4.019)">
        <path id="Path_26" data-name="Path 26" d="M319.679,253.7v1.579c0,.343-.114.552-.551.552h-2.911v9.285c0,.438-.209.552-.552.552h-1.884c-.342,0-.552-.114-.552-.552v-9.285H310.3c-.438,0-.551-.209-.551-.552V253.7c0-.342.114-.552.551-.552h8.828C319.565,253.144,319.679,253.353,319.679,253.7Z" transform="translate(-309.748 -253.125)" fill="#fff"/>
        <path id="Path_27" data-name="Path 27" d="M351.631,263.551v1.56c0,.342-.115.552-.552.552h-8.524c-.437,0-.552-.209-.552-.552V253.7c0-.342.114-.552.552-.552h8.2c.437,0,.552.209.552.552v1.579c0,.343-.115.552-.552.552H345.01V257.9h5.1c.438,0,.551.209.551.552v1.484c0,.342-.114.552-.551.552h-5.1V263h6.069C351.517,263,351.631,263.209,351.631,263.551Z" transform="translate(-330.089 -253.125)" fill="#fff"/>
        <path id="Path_28" data-name="Path 28" d="M383.289,265.663h-2c-.418,0-.571-.114-.723-.571l-.533-1.5h-4.661l-.533,1.5c-.152.457-.3.571-.723.571h-2c-.418,0-.418-.3-.323-.533l4.224-11.4a.754.754,0,0,1,.78-.59h1.827c.419,0,.609.19.78.59l4.2,11.4C383.708,265.359,383.708,265.663,383.289,265.663Zm-4.148-4.737-1.427-4.2-1.427,4.2Z" transform="translate(-348.845 -253.125)" fill="#fff"/>
        <path id="Path_29" data-name="Path 29" d="M419.8,253.644v11.435c0,.438-.209.551-.551.551h-1.827c-.342,0-.551-.114-.551-.551v-6.45l-1.9,3.329a.7.7,0,0,1-.552.4h-.951c-.286,0-.438-.247-.533-.4l-1.921-3.329v6.45c0,.438-.21.551-.552.551h-1.884c-.342,0-.551-.114-.551-.551V253.644c0-.342.114-.552.551-.552h1.884c.646,0,.723.418.875.647l2.606,4.68,2.626-4.68c.133-.229.228-.647.856-.647h1.827C419.685,253.093,419.8,253.3,419.8,253.644Z" transform="translate(-371.721 -253.093)" fill="#fff"/>
      </g>
    </g>
  </g>
</svg>
